<svg xmlns="http://www.w3.org/2000/svg" xmlns:xlink="http://www.w3.org/1999/xlink" width="1110" zoomAndPan="magnify" viewBox="0 0 832.5 209.999996" height="280" preserveAspectRatio="xMidYMid meet" version="1.0"><defs><g/><clipPath id="b663ed5ed0"><path d="M 392.632812 0.0625 L 418.0625 0.0625 L 418.0625 179.953125 L 392.632812 179.953125 Z M 392.632812 0.0625 " clip-rule="nonzero"/></clipPath><clipPath id="f460710a48"><path d="M 0.632812 0.0625 L 26.0625 0.0625 L 26.0625 179.953125 L 0.632812 179.953125 Z M 0.632812 0.0625 " clip-rule="nonzero"/></clipPath><clipPath id="6501bbfae8"><rect x="0" width="27" y="0" height="180"/></clipPath><clipPath id="f44a85bc9d"><path d="M 339.496094 29.367188 L 469.691406 29.367188 L 469.691406 55.742188 L 339.496094 55.742188 Z M 339.496094 29.367188 " clip-rule="nonzero"/></clipPath><clipPath id="58b60659da"><path d="M 0.496094 0.367188 L 130.691406 0.367188 L 130.691406 26.742188 L 0.496094 26.742188 Z M 0.496094 0.367188 " clip-rule="nonzero"/></clipPath><clipPath id="08138d3783"><rect x="0" width="131" y="0" height="27"/></clipPath></defs><g fill="#0d2c54" fill-opacity="1"><g transform="translate(0.515315, 173.684004)"><g><path d="M 45.375 1.453125 C 37.5 1.453125 29.890625 0.335938 22.546875 -1.890625 C 15.203125 -4.128906 9.390625 -7.097656 5.109375 -10.796875 L 11.671875 -25.53125 C 15.859375 -22.226562 20.988281 -19.53125 27.0625 -17.4375 C 33.144531 -15.34375 39.25 -14.296875 45.375 -14.296875 C 52.957031 -14.296875 58.625 -15.507812 62.375 -17.9375 C 66.125 -20.375 68 -23.585938 68 -27.578125 C 68 -30.492188 66.953125 -32.898438 64.859375 -34.796875 C 62.765625 -36.691406 60.113281 -38.175781 56.90625 -39.25 C 53.695312 -40.320312 49.316406 -41.535156 43.765625 -42.890625 C 35.984375 -44.742188 29.6875 -46.59375 24.875 -48.4375 C 20.0625 -50.289062 15.925781 -53.1875 12.46875 -57.125 C 9.019531 -61.0625 7.296875 -66.382812 7.296875 -73.09375 C 7.296875 -78.738281 8.828125 -83.867188 11.890625 -88.484375 C 14.953125 -93.109375 19.570312 -96.78125 25.75 -99.5 C 31.925781 -102.226562 39.488281 -103.59375 48.4375 -103.59375 C 54.664062 -103.59375 60.796875 -102.8125 66.828125 -101.25 C 72.859375 -99.695312 78.0625 -97.460938 82.4375 -94.546875 L 76.453125 -79.8125 C 71.984375 -82.4375 67.316406 -84.425781 62.453125 -85.78125 C 57.585938 -87.144531 52.867188 -87.828125 48.296875 -87.828125 C 40.804688 -87.828125 35.238281 -86.5625 31.59375 -84.03125 C 27.945312 -81.507812 26.125 -78.15625 26.125 -73.96875 C 26.125 -71.050781 27.164062 -68.664062 29.25 -66.8125 C 31.34375 -64.96875 33.992188 -63.507812 37.203125 -62.4375 C 40.410156 -61.375 44.789062 -60.160156 50.34375 -58.796875 C 57.925781 -57.046875 64.148438 -55.222656 69.015625 -53.328125 C 73.878906 -51.429688 78.035156 -48.535156 81.484375 -44.640625 C 84.941406 -40.753906 86.671875 -35.503906 86.671875 -28.890625 C 86.671875 -23.242188 85.132812 -18.132812 82.0625 -13.5625 C 79 -9 74.351562 -5.351562 68.125 -2.625 C 61.90625 0.09375 54.320312 1.453125 45.375 1.453125 Z M 45.375 1.453125 "/></g></g></g><g fill="#0d2c54" fill-opacity="1"><g transform="translate(92.289221, 173.684004)"><g><path d="M 41.734375 -78.796875 C 53.210938 -78.796875 61.988281 -76.046875 68.0625 -70.546875 C 74.144531 -65.046875 77.1875 -56.753906 77.1875 -45.671875 L 77.1875 0 L 59.96875 0 L 59.96875 -9.484375 C 57.726562 -6.078125 54.539062 -3.472656 50.40625 -1.671875 C 46.269531 0.117188 41.285156 1.015625 35.453125 1.015625 C 29.617188 1.015625 24.507812 0.0195312 20.125 -1.96875 C 15.75 -3.957031 12.367188 -6.726562 9.984375 -10.28125 C 7.609375 -13.832031 6.421875 -17.847656 6.421875 -22.328125 C 6.421875 -29.328125 9.019531 -34.941406 14.21875 -39.171875 C 19.425781 -43.398438 27.625 -45.515625 38.8125 -45.515625 L 58.953125 -45.515625 L 58.953125 -46.6875 C 58.953125 -52.132812 57.320312 -56.316406 54.0625 -59.234375 C 50.800781 -62.148438 45.960938 -63.609375 39.546875 -63.609375 C 35.160156 -63.609375 30.851562 -62.925781 26.625 -61.5625 C 22.394531 -60.207031 18.820312 -58.3125 15.90625 -55.875 L 8.75 -69.15625 C 12.832031 -72.269531 17.742188 -74.65625 23.484375 -76.3125 C 29.222656 -77.96875 35.304688 -78.796875 41.734375 -78.796875 Z M 39.25 -12.25 C 43.820312 -12.25 47.878906 -13.296875 51.421875 -15.390625 C 54.972656 -17.484375 57.484375 -20.472656 58.953125 -24.359375 L 58.953125 -33.40625 L 40.125 -33.40625 C 29.613281 -33.40625 24.359375 -29.953125 24.359375 -23.046875 C 24.359375 -19.742188 25.671875 -17.117188 28.296875 -15.171875 C 30.929688 -13.222656 34.582031 -12.25 39.25 -12.25 Z M 39.25 -12.25 "/></g></g></g><g fill="#0d2c54" fill-opacity="1"><g transform="translate(180.853236, 173.684004)"><g><path d="M 56.171875 -78.796875 C 65.992188 -78.796875 73.875 -75.925781 79.8125 -70.1875 C 85.75 -64.445312 88.71875 -55.929688 88.71875 -44.640625 L 88.71875 0 L 70.46875 0 L 70.46875 -42.3125 C 70.46875 -49.125 68.863281 -54.253906 65.65625 -57.703125 C 62.445312 -61.160156 57.875 -62.890625 51.9375 -62.890625 C 45.226562 -62.890625 39.925781 -60.867188 36.03125 -56.828125 C 32.144531 -52.796875 30.203125 -46.984375 30.203125 -39.390625 L 30.203125 0 L 11.96875 0 L 11.96875 -77.90625 L 29.328125 -77.90625 L 29.328125 -67.84375 C 32.335938 -71.445312 36.128906 -74.171875 40.703125 -76.015625 C 45.273438 -77.867188 50.429688 -78.796875 56.171875 -78.796875 Z M 56.171875 -78.796875 "/></g></g></g><g fill="#0d2c54" fill-opacity="1"><g transform="translate(281.527314, 173.684004)"><g><path d="M 47.71875 1.015625 C 39.632812 1.015625 32.382812 -0.679688 25.96875 -4.078125 C 19.550781 -7.484375 14.539062 -12.226562 10.9375 -18.3125 C 7.34375 -24.394531 5.546875 -31.273438 5.546875 -38.953125 C 5.546875 -46.640625 7.34375 -53.5 10.9375 -59.53125 C 14.539062 -65.5625 19.523438 -70.28125 25.890625 -73.6875 C 32.265625 -77.09375 39.539062 -78.796875 47.71875 -78.796875 C 55.394531 -78.796875 62.125 -77.238281 67.90625 -74.125 C 73.695312 -71.007812 78.054688 -66.535156 80.984375 -60.703125 L 66.96875 -52.53125 C 64.726562 -56.125 61.929688 -58.820312 58.578125 -60.625 C 55.222656 -62.425781 51.550781 -63.328125 47.5625 -63.328125 C 40.757812 -63.328125 35.117188 -61.113281 30.640625 -56.6875 C 26.160156 -52.257812 23.921875 -46.347656 23.921875 -38.953125 C 23.921875 -31.566406 26.132812 -25.660156 30.5625 -21.234375 C 34.988281 -16.804688 40.65625 -14.59375 47.5625 -14.59375 C 51.550781 -14.59375 55.222656 -15.488281 58.578125 -17.28125 C 61.929688 -19.082031 64.726562 -21.785156 66.96875 -25.390625 L 80.984375 -17.21875 C 77.960938 -11.382812 73.554688 -6.882812 67.765625 -3.71875 C 61.984375 -0.5625 55.300781 1.015625 47.71875 1.015625 Z M 47.71875 1.015625 "/></g></g></g><g fill="#0d2c54" fill-opacity="1"><g transform="translate(455.582155, 173.03437)"><g><path d="M 11.875 -77.375 L 30 -77.375 L 30 0 L 11.875 0 Z M 21.015625 -90.125 C 17.722656 -90.125 14.96875 -91.160156 12.75 -93.234375 C 10.53125 -95.316406 9.421875 -97.90625 9.421875 -101 C 9.421875 -104.09375 10.53125 -106.675781 12.75 -108.75 C 14.96875 -110.832031 17.722656 -111.875 21.015625 -111.875 C 24.296875 -111.875 27.046875 -110.878906 29.265625 -108.890625 C 31.492188 -106.910156 32.609375 -104.425781 32.609375 -101.4375 C 32.609375 -98.25 31.519531 -95.566406 29.34375 -93.390625 C 27.164062 -91.210938 24.390625 -90.125 21.015625 -90.125 Z M 21.015625 -90.125 "/></g></g></g><g fill="#0d2c54" fill-opacity="1"><g transform="translate(497.46087, 173.03437)"><g><path d="M 47.390625 1.015625 C 39.367188 1.015625 32.171875 -0.671875 25.796875 -4.046875 C 19.421875 -7.429688 14.441406 -12.144531 10.859375 -18.1875 C 7.285156 -24.226562 5.5 -31.0625 5.5 -38.6875 C 5.5 -46.320312 7.285156 -53.132812 10.859375 -59.125 C 14.441406 -65.113281 19.394531 -69.796875 25.71875 -73.171875 C 32.050781 -76.554688 39.273438 -78.25 47.390625 -78.25 C 55.015625 -78.25 61.703125 -76.703125 67.453125 -73.609375 C 73.203125 -70.515625 77.523438 -66.070312 80.421875 -60.28125 L 66.515625 -52.171875 C 64.285156 -55.742188 61.503906 -58.421875 58.171875 -60.203125 C 54.847656 -61.992188 51.203125 -62.890625 47.234375 -62.890625 C 40.472656 -62.890625 34.867188 -60.691406 30.421875 -56.296875 C 25.984375 -51.898438 23.765625 -46.03125 23.765625 -38.6875 C 23.765625 -31.34375 25.960938 -25.472656 30.359375 -21.078125 C 34.753906 -16.679688 40.378906 -14.484375 47.234375 -14.484375 C 51.203125 -14.484375 54.847656 -15.378906 58.171875 -17.171875 C 61.503906 -18.960938 64.285156 -21.644531 66.515625 -25.21875 L 80.421875 -17.09375 C 77.429688 -11.300781 73.0625 -6.832031 67.3125 -3.6875 C 61.5625 -0.550781 54.921875 1.015625 47.390625 1.015625 Z M 47.390625 1.015625 "/></g></g></g><g fill="#0d2c54" fill-opacity="1"><g transform="translate(580.493753, 173.03437)"><g><path d="M 46.65625 1.015625 C 38.832031 1.015625 31.78125 -0.671875 25.5 -4.046875 C 19.21875 -7.429688 14.3125 -12.144531 10.78125 -18.1875 C 7.257812 -24.226562 5.5 -31.0625 5.5 -38.6875 C 5.5 -46.320312 7.257812 -53.132812 10.78125 -59.125 C 14.3125 -65.113281 19.21875 -69.796875 25.5 -73.171875 C 31.78125 -76.554688 38.832031 -78.25 46.65625 -78.25 C 54.582031 -78.25 61.679688 -76.554688 67.953125 -73.171875 C 74.234375 -69.796875 79.132812 -65.113281 82.65625 -59.125 C 86.1875 -53.132812 87.953125 -46.320312 87.953125 -38.6875 C 87.953125 -31.0625 86.1875 -24.226562 82.65625 -18.1875 C 79.132812 -12.144531 74.234375 -7.429688 67.953125 -4.046875 C 61.679688 -0.671875 54.582031 1.015625 46.65625 1.015625 Z M 46.65625 -14.484375 C 53.320312 -14.484375 58.828125 -16.707031 63.171875 -21.15625 C 67.523438 -25.601562 69.703125 -31.445312 69.703125 -38.6875 C 69.703125 -45.9375 67.523438 -51.78125 63.171875 -56.21875 C 58.828125 -60.664062 53.320312 -62.890625 46.65625 -62.890625 C 39.988281 -62.890625 34.503906 -60.664062 30.203125 -56.21875 C 25.910156 -51.78125 23.765625 -45.9375 23.765625 -38.6875 C 23.765625 -31.445312 25.910156 -25.601562 30.203125 -21.15625 C 34.503906 -16.707031 39.988281 -14.484375 46.65625 -14.484375 Z M 46.65625 -14.484375 "/></g></g></g><g fill="#0d2c54" fill-opacity="1"><g transform="translate(673.960105, 173.03437)"><g><path d="M 109.546875 -78.25 C 119.304688 -78.25 127.035156 -75.421875 132.734375 -69.765625 C 138.429688 -64.117188 141.28125 -55.644531 141.28125 -44.34375 L 141.28125 0 L 123.171875 0 L 123.171875 -42.015625 C 123.171875 -48.785156 121.671875 -53.882812 118.671875 -57.3125 C 115.679688 -60.738281 111.382812 -62.453125 105.78125 -62.453125 C 99.695312 -62.453125 94.816406 -60.445312 91.140625 -56.4375 C 87.472656 -52.425781 85.640625 -46.703125 85.640625 -39.265625 L 85.640625 0 L 67.53125 0 L 67.53125 -42.015625 C 67.53125 -48.785156 66.03125 -53.882812 63.03125 -57.3125 C 60.039062 -60.738281 55.742188 -62.453125 50.140625 -62.453125 C 43.953125 -62.453125 39.046875 -60.472656 35.421875 -56.515625 C 31.804688 -52.554688 30 -46.804688 30 -39.265625 L 30 0 L 11.875 0 L 11.875 -77.375 L 29.125 -77.375 L 29.125 -67.53125 C 32.019531 -71.007812 35.640625 -73.664062 39.984375 -75.5 C 44.335938 -77.332031 49.171875 -78.25 54.484375 -78.25 C 60.273438 -78.25 65.414062 -77.160156 69.90625 -74.984375 C 74.40625 -72.816406 77.957031 -69.609375 80.5625 -65.359375 C 83.75 -69.410156 87.851562 -72.570312 92.875 -74.84375 C 97.90625 -77.113281 103.460938 -78.25 109.546875 -78.25 Z M 109.546875 -78.25 "/></g></g></g><g clip-path="url(#b663ed5ed0)"><g transform="matrix(1, 0, 0, 1, 392, -0.000000000000009839)"><g clip-path="url(#6501bbfae8)"><g clip-path="url(#f460710a48)"><path fill="#daa520" d="M 0.632812 0.0625 L 26.0625 0.0625 L 26.0625 179.960938 L 0.632812 179.960938 Z M 0.632812 0.0625 " fill-opacity="1" fill-rule="nonzero"/></g></g></g></g><g clip-path="url(#f44a85bc9d)"><g transform="matrix(1, 0, 0, 1, 339, 29)"><g clip-path="url(#08138d3783)"><g clip-path="url(#58b60659da)"><path fill="#daa520" d="M 130.691406 0.367188 L 130.691406 26.742188 L 0.464844 26.742188 L 0.464844 0.367188 Z M 130.691406 0.367188 " fill-opacity="1" fill-rule="nonzero"/></g></g></g></g></svg>