<svg xmlns="http://www.w3.org/2000/svg" xmlns:xlink="http://www.w3.org/1999/xlink" width="2000" zoomAndPan="magnify" viewBox="0 0 1500 1499.999933" height="2000" preserveAspectRatio="xMidYMid meet" version="1.0"><defs><g/><clipPath id="76519c49a6"><path d="M 727.976562 642.710938 L 753.425781 642.710938 L 753.425781 822.710938 L 727.976562 822.710938 Z M 727.976562 642.710938 " clip-rule="nonzero"/></clipPath><clipPath id="cdad5a5f39"><path d="M 0.976562 0.710938 L 26.425781 0.710938 L 26.425781 180.710938 L 0.976562 180.710938 Z M 0.976562 0.710938 " clip-rule="nonzero"/></clipPath><clipPath id="a9723df778"><rect x="0" width="27" y="0" height="181"/></clipPath><clipPath id="1a7b8da6f9"><path d="M 674.8125 672.035156 L 805.082031 672.035156 L 805.082031 698.425781 L 674.8125 698.425781 Z M 674.8125 672.035156 " clip-rule="nonzero"/></clipPath><clipPath id="4a52867852"><path d="M 0.8125 0.0351562 L 131.082031 0.0351562 L 131.082031 26.425781 L 0.8125 26.425781 Z M 0.8125 0.0351562 " clip-rule="nonzero"/></clipPath><clipPath id="5247fc3d45"><rect x="0" width="132" y="0" height="27"/></clipPath></defs><rect x="-150" width="1800" fill="#ffffff" y="-149.999993" height="1799.99992" fill-opacity="1"/><rect x="-150" width="1800" fill="#ffffff" y="-149.999993" height="1799.99992" fill-opacity="1"/><g fill="#0d2c54" fill-opacity="1"><g transform="translate(335.626792, 816.437478)"><g><path d="M 45.40625 1.453125 C 37.519531 1.453125 29.898438 0.335938 22.546875 -1.890625 C 15.203125 -4.128906 9.390625 -7.097656 5.109375 -10.796875 L 11.6875 -25.546875 C 15.863281 -22.242188 20.992188 -19.546875 27.078125 -17.453125 C 33.160156 -15.359375 39.269531 -14.3125 45.40625 -14.3125 C 53 -14.3125 58.664062 -15.523438 62.40625 -17.953125 C 66.15625 -20.390625 68.03125 -23.601562 68.03125 -27.59375 C 68.03125 -30.507812 66.984375 -32.914062 64.890625 -34.8125 C 62.804688 -36.71875 60.15625 -38.203125 56.9375 -39.265625 C 53.726562 -40.335938 49.347656 -41.554688 43.796875 -42.921875 C 36.015625 -44.773438 29.710938 -46.625 24.890625 -48.46875 C 20.078125 -50.320312 15.941406 -53.21875 12.484375 -57.15625 C 9.023438 -61.101562 7.296875 -66.429688 7.296875 -73.140625 C 7.296875 -78.785156 8.828125 -83.921875 11.890625 -88.546875 C 14.960938 -93.171875 19.585938 -96.84375 25.765625 -99.5625 C 31.953125 -102.289062 39.519531 -103.65625 48.46875 -103.65625 C 54.695312 -103.65625 60.828125 -102.875 66.859375 -101.3125 C 72.898438 -99.757812 78.109375 -97.523438 82.484375 -94.609375 L 76.5 -79.859375 C 72.019531 -82.484375 67.347656 -84.476562 62.484375 -85.84375 C 57.617188 -87.207031 52.898438 -87.890625 48.328125 -87.890625 C 40.828125 -87.890625 35.253906 -86.625 31.609375 -84.09375 C 27.960938 -81.5625 26.140625 -78.203125 26.140625 -74.015625 C 26.140625 -71.097656 27.179688 -68.710938 29.265625 -66.859375 C 31.359375 -65.015625 34.007812 -63.554688 37.21875 -62.484375 C 40.4375 -61.410156 44.820312 -60.195312 50.375 -58.84375 C 57.96875 -57.082031 64.195312 -55.253906 69.0625 -53.359375 C 73.925781 -51.460938 78.082031 -48.566406 81.53125 -44.671875 C 84.988281 -40.785156 86.71875 -35.53125 86.71875 -28.90625 C 86.71875 -23.257812 85.1875 -18.148438 82.125 -13.578125 C 79.0625 -9.003906 74.414062 -5.351562 68.1875 -2.625 C 61.957031 0.09375 54.363281 1.453125 45.40625 1.453125 Z M 45.40625 1.453125 "/></g></g></g><g fill="#0d2c54" fill-opacity="1"><g transform="translate(427.455813, 816.437478)"><g><path d="M 41.75 -78.84375 C 53.238281 -78.84375 62.023438 -76.09375 68.109375 -70.59375 C 74.191406 -65.09375 77.234375 -56.796875 77.234375 -45.703125 L 77.234375 0 L 60 0 L 60 -9.484375 C 57.757812 -6.078125 54.570312 -3.472656 50.4375 -1.671875 C 46.300781 0.117188 41.316406 1.015625 35.484375 1.015625 C 29.640625 1.015625 24.523438 0.0195312 20.140625 -1.96875 C 15.765625 -3.96875 12.382812 -6.742188 10 -10.296875 C 7.613281 -13.847656 6.421875 -17.863281 6.421875 -22.34375 C 6.421875 -29.34375 9.023438 -34.957031 14.234375 -39.1875 C 19.441406 -43.425781 27.644531 -45.546875 38.84375 -45.546875 L 58.984375 -45.546875 L 58.984375 -46.71875 C 58.984375 -52.164062 57.351562 -56.347656 54.09375 -59.265625 C 50.832031 -62.191406 45.988281 -63.65625 39.5625 -63.65625 C 35.1875 -63.65625 30.878906 -62.972656 26.640625 -61.609375 C 22.410156 -60.242188 18.832031 -58.347656 15.90625 -55.921875 L 8.765625 -69.203125 C 12.847656 -72.316406 17.757812 -74.703125 23.5 -76.359375 C 29.25 -78.015625 35.332031 -78.84375 41.75 -78.84375 Z M 39.28125 -12.265625 C 43.851562 -12.265625 47.914062 -13.3125 51.46875 -15.40625 C 55.019531 -17.5 57.523438 -20.488281 58.984375 -24.375 L 58.984375 -33.4375 L 40.15625 -33.4375 C 29.632812 -33.4375 24.375 -29.976562 24.375 -23.0625 C 24.375 -19.757812 25.6875 -17.132812 28.3125 -15.1875 C 30.945312 -13.238281 34.601562 -12.265625 39.28125 -12.265625 Z M 39.28125 -12.265625 "/></g></g></g><g fill="#0d2c54" fill-opacity="1"><g transform="translate(516.073016, 816.437478)"><g><path d="M 56.203125 -78.84375 C 66.035156 -78.84375 73.921875 -75.96875 79.859375 -70.21875 C 85.796875 -64.476562 88.765625 -55.960938 88.765625 -44.671875 L 88.765625 0 L 70.515625 0 L 70.515625 -42.34375 C 70.515625 -49.15625 68.90625 -54.285156 65.6875 -57.734375 C 62.476562 -61.191406 57.90625 -62.921875 51.96875 -62.921875 C 45.257812 -62.921875 39.957031 -60.898438 36.0625 -56.859375 C 32.164062 -52.828125 30.21875 -47.015625 30.21875 -39.421875 L 30.21875 0 L 11.96875 0 L 11.96875 -77.96875 L 29.34375 -77.96875 L 29.34375 -67.890625 C 32.363281 -71.492188 36.160156 -74.21875 40.734375 -76.0625 C 45.304688 -77.914062 50.460938 -78.84375 56.203125 -78.84375 Z M 56.203125 -78.84375 "/></g></g></g><g fill="#0d2c54" fill-opacity="1"><g transform="translate(616.807554, 816.437478)"><g><path d="M 47.734375 1.015625 C 39.660156 1.015625 32.410156 -0.6875 25.984375 -4.09375 C 19.566406 -7.5 14.554688 -12.242188 10.953125 -18.328125 C 7.347656 -24.410156 5.546875 -31.296875 5.546875 -38.984375 C 5.546875 -46.671875 7.347656 -53.53125 10.953125 -59.5625 C 14.554688 -65.601562 19.546875 -70.328125 25.921875 -73.734375 C 32.296875 -77.140625 39.566406 -78.84375 47.734375 -78.84375 C 55.429688 -78.84375 62.175781 -77.285156 67.96875 -74.171875 C 73.757812 -71.054688 78.113281 -66.578125 81.03125 -60.734375 L 67.015625 -52.5625 C 64.773438 -56.164062 61.972656 -58.863281 58.609375 -60.65625 C 55.253906 -62.457031 51.582031 -63.359375 47.59375 -63.359375 C 40.78125 -63.359375 35.132812 -61.144531 30.65625 -56.71875 C 26.175781 -52.289062 23.9375 -46.378906 23.9375 -38.984375 C 23.9375 -31.585938 26.148438 -25.671875 30.578125 -21.234375 C 35.015625 -16.804688 40.6875 -14.59375 47.59375 -14.59375 C 51.582031 -14.59375 55.253906 -15.492188 58.609375 -17.296875 C 61.972656 -19.097656 64.773438 -21.800781 67.015625 -25.40625 L 81.03125 -17.234375 C 78.007812 -11.390625 73.601562 -6.882812 67.8125 -3.71875 C 62.019531 -0.5625 55.328125 1.015625 47.734375 1.015625 Z M 47.734375 1.015625 "/></g></g></g><g fill="#0d2c54" fill-opacity="1"><g transform="translate(790.966946, 815.787438)"><g><path d="M 11.890625 -77.4375 L 30.015625 -77.4375 L 30.015625 0 L 11.890625 0 Z M 21.03125 -90.1875 C 17.738281 -90.1875 14.984375 -91.222656 12.765625 -93.296875 C 10.546875 -95.378906 9.4375 -97.96875 9.4375 -101.0625 C 9.4375 -104.15625 10.546875 -106.738281 12.765625 -108.8125 C 14.984375 -110.894531 17.738281 -111.9375 21.03125 -111.9375 C 24.320312 -111.9375 27.078125 -110.945312 29.296875 -108.96875 C 31.515625 -106.988281 32.625 -104.5 32.625 -101.5 C 32.625 -98.3125 31.535156 -95.628906 29.359375 -93.453125 C 27.191406 -91.273438 24.414062 -90.1875 21.03125 -90.1875 Z M 21.03125 -90.1875 "/></g></g></g><g fill="#0d2c54" fill-opacity="1"><g transform="translate(832.870812, 815.787438)"><g><path d="M 47.421875 1.015625 C 39.390625 1.015625 32.179688 -0.675781 25.796875 -4.0625 C 19.421875 -7.445312 14.445312 -12.160156 10.875 -18.203125 C 7.300781 -24.242188 5.515625 -31.082031 5.515625 -38.71875 C 5.515625 -46.351562 7.300781 -53.164062 10.875 -59.15625 C 14.445312 -65.15625 19.398438 -69.84375 25.734375 -73.21875 C 32.066406 -76.601562 39.296875 -78.296875 47.421875 -78.296875 C 55.054688 -78.296875 61.75 -76.75 67.5 -73.65625 C 73.25 -70.5625 77.570312 -66.113281 80.46875 -60.3125 L 66.5625 -52.203125 C 64.332031 -55.773438 61.550781 -58.457031 58.21875 -60.25 C 54.882812 -62.039062 51.234375 -62.9375 47.265625 -62.9375 C 40.503906 -62.9375 34.898438 -60.734375 30.453125 -56.328125 C 26.003906 -51.929688 23.78125 -46.0625 23.78125 -38.71875 C 23.78125 -31.363281 25.976562 -25.488281 30.375 -21.09375 C 34.769531 -16.695312 40.398438 -14.5 47.265625 -14.5 C 51.234375 -14.5 54.882812 -15.390625 58.21875 -17.171875 C 61.550781 -18.960938 64.332031 -21.648438 66.5625 -25.234375 L 80.46875 -17.109375 C 77.476562 -11.304688 73.101562 -6.832031 67.34375 -3.6875 C 61.59375 -0.550781 54.953125 1.015625 47.421875 1.015625 Z M 47.421875 1.015625 "/></g></g></g><g fill="#0d2c54" fill-opacity="1"><g transform="translate(915.953561, 815.787438)"><g><path d="M 46.6875 1.015625 C 38.851562 1.015625 31.796875 -0.675781 25.515625 -4.0625 C 19.234375 -7.445312 14.328125 -12.160156 10.796875 -18.203125 C 7.273438 -24.242188 5.515625 -31.082031 5.515625 -38.71875 C 5.515625 -46.351562 7.273438 -53.164062 10.796875 -59.15625 C 14.328125 -65.15625 19.234375 -69.84375 25.515625 -73.21875 C 31.796875 -76.601562 38.851562 -78.296875 46.6875 -78.296875 C 54.613281 -78.296875 61.71875 -76.601562 68 -73.21875 C 74.289062 -69.84375 79.195312 -65.15625 82.71875 -59.15625 C 86.25 -53.164062 88.015625 -46.351562 88.015625 -38.71875 C 88.015625 -31.082031 86.25 -24.242188 82.71875 -18.203125 C 79.195312 -12.160156 74.289062 -7.445312 68 -4.0625 C 61.71875 -0.675781 54.613281 1.015625 46.6875 1.015625 Z M 46.6875 -14.5 C 53.351562 -14.5 58.863281 -16.722656 63.21875 -21.171875 C 67.570312 -25.617188 69.75 -31.46875 69.75 -38.71875 C 69.75 -45.96875 67.570312 -51.816406 63.21875 -56.265625 C 58.863281 -60.710938 53.351562 -62.9375 46.6875 -62.9375 C 40.019531 -62.9375 34.535156 -60.710938 30.234375 -56.265625 C 25.929688 -51.816406 23.78125 -45.96875 23.78125 -38.71875 C 23.78125 -31.46875 25.929688 -25.617188 30.234375 -21.171875 C 34.535156 -16.722656 40.019531 -14.5 46.6875 -14.5 Z M 46.6875 -14.5 "/></g></g></g><g fill="#0d2c54" fill-opacity="1"><g transform="translate(1009.476044, 815.787438)"><g><path d="M 109.625 -78.296875 C 119.382812 -78.296875 127.113281 -75.46875 132.8125 -69.8125 C 138.519531 -64.15625 141.375 -55.675781 141.375 -44.375 L 141.375 0 L 123.25 0 L 123.25 -42.046875 C 123.25 -48.816406 121.75 -53.914062 118.75 -57.34375 C 115.757812 -60.78125 111.457031 -62.5 105.84375 -62.5 C 99.757812 -62.5 94.878906 -60.488281 91.203125 -56.46875 C 87.523438 -52.457031 85.6875 -46.734375 85.6875 -39.296875 L 85.6875 0 L 67.5625 0 L 67.5625 -42.046875 C 67.5625 -48.816406 66.0625 -53.914062 63.0625 -57.34375 C 60.070312 -60.78125 55.773438 -62.5 50.171875 -62.5 C 43.984375 -62.5 39.078125 -60.515625 35.453125 -56.546875 C 31.828125 -52.585938 30.015625 -46.835938 30.015625 -39.296875 L 30.015625 0 L 11.890625 0 L 11.890625 -77.4375 L 29.140625 -77.4375 L 29.140625 -67.5625 C 32.046875 -71.050781 35.671875 -73.710938 40.015625 -75.546875 C 44.367188 -77.378906 49.203125 -78.296875 54.515625 -78.296875 C 60.316406 -78.296875 65.460938 -77.207031 69.953125 -75.03125 C 74.453125 -72.863281 78.007812 -69.648438 80.625 -65.390625 C 83.8125 -69.453125 87.914062 -72.617188 92.9375 -74.890625 C 97.96875 -77.160156 103.53125 -78.296875 109.625 -78.296875 Z M 109.625 -78.296875 "/></g></g></g><g clip-path="url(#76519c49a6)"><g transform="matrix(1, 0, 0, 1, 727, 642)"><g clip-path="url(#a9723df778)"><g clip-path="url(#cdad5a5f39)"><path fill="#daa520" d="M 0.976562 0.710938 L 26.425781 0.710938 L 26.425781 180.71875 L 0.976562 180.71875 Z M 0.976562 0.710938 " fill-opacity="1" fill-rule="nonzero"/></g></g></g></g><g clip-path="url(#1a7b8da6f9)"><g transform="matrix(1, 0, 0, 1, 674, 672)"><g clip-path="url(#5247fc3d45)"><g clip-path="url(#4a52867852)"><path fill="#daa520" d="M 131.082031 0.0351562 L 131.082031 26.425781 L 0.78125 26.425781 L 0.78125 0.0351562 Z M 131.082031 0.0351562 " fill-opacity="1" fill-rule="nonzero"/></g></g></g></g></svg>